<?xml version="1.0" encoding="UTF-8" standalone="no"?>
<svg
   viewBox="0 0 24 24"
   version="1.1"
   id="svg10"
   sodipodi:docname="icon.cfg.svg"
   inkscape:version="1.1.1 (3bf5ae0d25, 2021-09-20)"
   xmlns:inkscape="http://www.inkscape.org/namespaces/inkscape"
   xmlns:sodipodi="http://sodipodi.sourceforge.net/DTD/sodipodi-0.dtd"
   xmlns="http://www.w3.org/2000/svg"
   xmlns:svg="http://www.w3.org/2000/svg">
  <defs
     id="defs14" />
  <sodipodi:namedview
     id="namedview12"
     pagecolor="#ffffff"
     bordercolor="#666666"
     borderopacity="1.0"
     inkscape:pageshadow="2"
     inkscape:pageopacity="0.0"
     inkscape:pagecheckerboard="0"
     showgrid="false"
     inkscape:zoom="9.09375"
     inkscape:cx="5.8281787"
     inkscape:cy="24.027491"
     inkscape:window-width="1280"
     inkscape:window-height="953"
     inkscape:window-x="-8"
     inkscape:window-y="157"
     inkscape:window-maximized="1"
     inkscape:current-layer="svg10" />
  <path
     fill="#444444"
     d="M 15.09622,10.59622 V 5.0962195 h 1 v -1 H 8.0962197 v 1 h 1 V 10.59622 c 0,0 -2,1.5 -2,3.5 0,0.5 1.9,0.7 4.0000003,0.7 v 2.2 c 0,0.7 0.2,1.4 0.5,2.1 l 0.5,1 0.5,-1 c 0.3,-0.6 0.5,-1.3 0.5,-2.1 v -2.2 c 2.1,0 4,-0.3 4,-0.7 0,-2 -2,-3.5 -2,-3.5 z m -4,0.1 c 0,0 -0.5,0.3 -1.6000003,1.4 -1,1 -1.5,1.9 -1.5,1.9 0,0 0.1,-1 0.8,-1.9 0.9,-1.1 1.3000003,-1.4 1.3000003,-1.4 V 5.0962195 h 1 z"
     id="path2"
     inkscape:export-filename="E:\dev\chrome-no-close-pinned\icon.png"
     inkscape:export-xdpi="96"
     inkscape:export-ydpi="96" />
  <g
     data-name="Layer 2"
     id="g8">
    <g
       data-name="slash"
       id="g6">
      <rect
         width="24"
         height="24"
         opacity="0"
         id="rect2" />
      <path
         d="M12 2a10 10 0 1 0 10 10A10 10 0 0 0 12 2zm8 10a7.92 7.92 0 0 1-1.69 4.9L7.1 5.69A7.92 7.92 0 0 1 12 4a8 8 0 0 1 8 8zM4 12a7.92 7.92 0 0 1 1.69-4.9L16.9 18.31A7.92 7.92 0 0 1 12 20a8 8 0 0 1-8-8z"
         id="path4" />
    </g>
  </g>
</svg>
